<mxfile host="app.diagrams.net" modified="2023-04-26T22:16:58.049Z" agent="Mozilla/5.0 (X11; Linux x86_64; rv:109.0) Gecko/20100101 Firefox/110.0" etag="5uAtBE7DxR7wd0XTG3Gr" version="21.2.1" type="device">
  <diagram name="Page-1" id="makqgEAx_ceyJtYkbN0j">
    <mxGraphModel dx="1402" dy="758" grid="1" gridSize="10" guides="1" tooltips="1" connect="1" arrows="1" fold="1" page="1" pageScale="1" pageWidth="850" pageHeight="1100" math="0" shadow="0">
      <root>
        <mxCell id="0" />
        <mxCell id="1" parent="0" />
        <mxCell id="aWajNl2YM8G67ASw5BNE-1" value="Supplier 1" style="ellipse;whiteSpace=wrap;html=1;aspect=fixed;strokeColor=#FF0303;strokeWidth=5;" parent="1" vertex="1">
          <mxGeometry x="200" y="120" width="80" height="80" as="geometry" />
        </mxCell>
        <mxCell id="aWajNl2YM8G67ASw5BNE-2" value="Supplier 2" style="ellipse;whiteSpace=wrap;html=1;aspect=fixed;strokeColor=#FF0000;strokeWidth=5;" parent="1" vertex="1">
          <mxGeometry x="400" y="120" width="80" height="80" as="geometry" />
        </mxCell>
        <mxCell id="aWajNl2YM8G67ASw5BNE-3" value="Supplier 3" style="ellipse;whiteSpace=wrap;html=1;aspect=fixed;strokeColor=#FF0808;strokeWidth=5;" parent="1" vertex="1">
          <mxGeometry x="600" y="120" width="80" height="80" as="geometry" />
        </mxCell>
        <mxCell id="aWajNl2YM8G67ASw5BNE-45" style="edgeStyle=orthogonalEdgeStyle;rounded=0;orthogonalLoop=1;jettySize=auto;html=1;exitX=0;exitY=1;exitDx=0;exitDy=0;entryX=0.833;entryY=0.05;entryDx=0;entryDy=0;entryPerimeter=0;" parent="1" source="aWajNl2YM8G67ASw5BNE-4" target="aWajNl2YM8G67ASw5BNE-6" edge="1">
          <mxGeometry relative="1" as="geometry" />
        </mxCell>
        <mxCell id="aWajNl2YM8G67ASw5BNE-46" value="5." style="edgeLabel;html=1;align=center;verticalAlign=middle;resizable=0;points=[];" parent="aWajNl2YM8G67ASw5BNE-45" vertex="1" connectable="0">
          <mxGeometry x="0.1169" y="1" relative="1" as="geometry">
            <mxPoint as="offset" />
          </mxGeometry>
        </mxCell>
        <mxCell id="aWajNl2YM8G67ASw5BNE-4" value="Broker" style="rounded=1;whiteSpace=wrap;html=1;rotation=-90;strokeWidth=5;" parent="1" vertex="1">
          <mxGeometry x="380" y="370" width="120" height="60" as="geometry" />
        </mxCell>
        <mxCell id="aWajNl2YM8G67ASw5BNE-5" value="&lt;div&gt;Consumer 1&lt;br&gt;&lt;/div&gt;" style="shape=hexagon;perimeter=hexagonPerimeter2;whiteSpace=wrap;html=1;fixedSize=1;strokeColor=#0303FF;strokeWidth=5;" parent="1" vertex="1">
          <mxGeometry x="195" y="610" width="90" height="80" as="geometry" />
        </mxCell>
        <mxCell id="aWajNl2YM8G67ASw5BNE-6" value="&lt;div&gt;Consumer 2&lt;br&gt;&lt;/div&gt;" style="shape=hexagon;perimeter=hexagonPerimeter2;whiteSpace=wrap;html=1;fixedSize=1;strokeColor=#0303FF;strokeWidth=5;" parent="1" vertex="1">
          <mxGeometry x="395" y="620" width="90" height="80" as="geometry" />
        </mxCell>
        <mxCell id="aWajNl2YM8G67ASw5BNE-7" value="&lt;div&gt;Consumer 3&lt;/div&gt;" style="shape=hexagon;perimeter=hexagonPerimeter2;whiteSpace=wrap;html=1;fixedSize=1;strokeColor=#0303FF;strokeWidth=5;" parent="1" vertex="1">
          <mxGeometry x="595" y="610" width="90" height="80" as="geometry" />
        </mxCell>
        <mxCell id="aWajNl2YM8G67ASw5BNE-12" value="&lt;div align=&quot;left&quot;&gt;Supplier operations:&lt;/div&gt;&lt;div align=&quot;left&quot;&gt;1.createBrokerRegistration(brokerAgentName)&lt;br&gt;&lt;/div&gt;&lt;div&gt;2.updatePrice()&lt;br&gt;&lt;/div&gt;&lt;div&gt;3.sendPriceToBroker(component)&lt;br&gt;&lt;/div&gt;&lt;div&gt;4.receiveBuyRequestAndSellComponent()&lt;br&gt;&lt;/div&gt;" style="text;strokeColor=none;align=left;fillColor=none;html=1;verticalAlign=middle;whiteSpace=wrap;rounded=0;" parent="1" vertex="1">
          <mxGeometry x="10" y="760" width="150" height="40" as="geometry" />
        </mxCell>
        <mxCell id="aWajNl2YM8G67ASw5BNE-13" value="&lt;div&gt;Consumer operations:&lt;/div&gt;&lt;div&gt;1.askBrokerForComponentPrices(component)&lt;/div&gt;&lt;div&gt;2.buyCheapestComponent(component)&lt;/div&gt;" style="text;strokeColor=none;align=left;fillColor=none;html=1;verticalAlign=middle;whiteSpace=wrap;rounded=0;" parent="1" vertex="1">
          <mxGeometry x="600" y="735" width="200" height="90" as="geometry" />
        </mxCell>
        <mxCell id="aWajNl2YM8G67ASw5BNE-14" value="&lt;div&gt;Broker operations:&lt;/div&gt;&lt;div&gt;1.registerSupplier(supplier)&lt;br&gt;&lt;/div&gt;&lt;div&gt;2.receiveConsumerPriceRequestAndRespond(component)&lt;br&gt;&lt;/div&gt;&lt;div&gt;3.getSupplierPricesForSomeComponent(component)&lt;/div&gt;&lt;div&gt;4.receivePriceUpdatesFromSuppliers()&lt;/div&gt;&lt;div&gt;5.sendBuyRequestAndReturnToConsumer(supplier)&lt;br&gt;&lt;/div&gt;&lt;div&gt;&lt;br&gt;&lt;/div&gt;" style="text;strokeColor=none;align=left;fillColor=none;html=1;verticalAlign=middle;whiteSpace=wrap;rounded=0;" parent="1" vertex="1">
          <mxGeometry x="280" y="760" width="130" height="50" as="geometry" />
        </mxCell>
        <mxCell id="aWajNl2YM8G67ASw5BNE-20" value="" style="endArrow=classic;html=1;rounded=0;entryX=1;entryY=0.5;entryDx=0;entryDy=0;exitX=0.5;exitY=1;exitDx=0;exitDy=0;" parent="1" edge="1">
          <mxGeometry relative="1" as="geometry">
            <mxPoint x="440" y="200" as="sourcePoint" />
            <mxPoint x="440" y="340" as="targetPoint" />
          </mxGeometry>
        </mxCell>
        <mxCell id="aWajNl2YM8G67ASw5BNE-21" value="1." style="edgeLabel;resizable=0;html=1;align=center;verticalAlign=middle;" parent="aWajNl2YM8G67ASw5BNE-20" connectable="0" vertex="1">
          <mxGeometry relative="1" as="geometry" />
        </mxCell>
        <mxCell id="aWajNl2YM8G67ASw5BNE-24" value="" style="endArrow=classic;html=1;rounded=0;entryX=1;entryY=1;entryDx=0;entryDy=0;exitX=0;exitY=1;exitDx=0;exitDy=0;" parent="1" source="aWajNl2YM8G67ASw5BNE-3" target="aWajNl2YM8G67ASw5BNE-4" edge="1">
          <mxGeometry relative="1" as="geometry">
            <mxPoint x="450" y="210" as="sourcePoint" />
            <mxPoint x="450" y="350" as="targetPoint" />
          </mxGeometry>
        </mxCell>
        <mxCell id="aWajNl2YM8G67ASw5BNE-25" value="1." style="edgeLabel;resizable=0;html=1;align=center;verticalAlign=middle;" parent="aWajNl2YM8G67ASw5BNE-24" connectable="0" vertex="1">
          <mxGeometry relative="1" as="geometry" />
        </mxCell>
        <mxCell id="aWajNl2YM8G67ASw5BNE-26" value="" style="endArrow=classic;html=1;rounded=0;entryX=1;entryY=0;entryDx=0;entryDy=0;exitX=1;exitY=1;exitDx=0;exitDy=0;" parent="1" source="aWajNl2YM8G67ASw5BNE-1" target="aWajNl2YM8G67ASw5BNE-4" edge="1">
          <mxGeometry relative="1" as="geometry">
            <mxPoint x="460" y="220" as="sourcePoint" />
            <mxPoint x="460" y="360" as="targetPoint" />
          </mxGeometry>
        </mxCell>
        <mxCell id="aWajNl2YM8G67ASw5BNE-27" value="1." style="edgeLabel;resizable=0;html=1;align=center;verticalAlign=middle;" parent="aWajNl2YM8G67ASw5BNE-26" connectable="0" vertex="1">
          <mxGeometry relative="1" as="geometry" />
        </mxCell>
        <mxCell id="aWajNl2YM8G67ASw5BNE-29" value="&lt;div align=&quot;left&quot;&gt;0. a) broker sends registration to DFService yellow pages&lt;br&gt;&lt;/div&gt;&lt;div align=&quot;left&quot;&gt;0. b) suppliers and consumers search broker through DFServices&lt;br&gt;&lt;/div&gt;&lt;div align=&quot;left&quot;&gt;1. supplier sends registration to broker&lt;br&gt;&lt;/div&gt;&lt;div&gt;2. supplier updates the price (every 5 seconds)&lt;/div&gt;&lt;div&gt;3. broker creates registration for the suppliers&lt;br&gt;&lt;/div&gt;&lt;div&gt;4. consumer asks broker for component prices&lt;/div&gt;&lt;div&gt;5. broker receives request and sends prices to the consumer&lt;/div&gt;&lt;div&gt;6. consumer requests the cheapest component and pays for it&lt;br&gt;&lt;/div&gt;&lt;div&gt;7. broker requests products from the cheapest supplier&lt;br&gt;&lt;/div&gt;&lt;div&gt;8. supplier sends the products and updates its stock&lt;/div&gt;&lt;div&gt;9. consumer receives bought products and stores them&lt;br&gt;&lt;/div&gt;" style="text;strokeColor=none;align=left;fillColor=none;html=1;verticalAlign=middle;whiteSpace=wrap;rounded=0;" parent="1" vertex="1">
          <mxGeometry x="30" y="330" width="310" height="120" as="geometry" />
        </mxCell>
        <mxCell id="aWajNl2YM8G67ASw5BNE-34" value="2." style="curved=1;endArrow=classic;html=1;rounded=0;entryX=0.763;entryY=0.063;entryDx=0;entryDy=0;entryPerimeter=0;" parent="1" target="aWajNl2YM8G67ASw5BNE-1" edge="1">
          <mxGeometry x="-0.0905" y="3" width="50" height="50" relative="1" as="geometry">
            <mxPoint x="280" y="170" as="sourcePoint" />
            <mxPoint x="270" y="120" as="targetPoint" />
            <Array as="points">
              <mxPoint x="345" y="170" />
              <mxPoint x="315" y="70" />
            </Array>
            <mxPoint as="offset" />
          </mxGeometry>
        </mxCell>
        <mxCell id="aWajNl2YM8G67ASw5BNE-35" value="2." style="curved=1;endArrow=classic;html=1;rounded=0;entryX=0.763;entryY=0.063;entryDx=0;entryDy=0;entryPerimeter=0;" parent="1" edge="1">
          <mxGeometry x="-0.0905" y="3" width="50" height="50" relative="1" as="geometry">
            <mxPoint x="479" y="170" as="sourcePoint" />
            <mxPoint x="460" y="125" as="targetPoint" />
            <Array as="points">
              <mxPoint x="544" y="170" />
              <mxPoint x="514" y="70" />
            </Array>
            <mxPoint as="offset" />
          </mxGeometry>
        </mxCell>
        <mxCell id="aWajNl2YM8G67ASw5BNE-36" value="2." style="curved=1;endArrow=classic;html=1;rounded=0;entryX=0.763;entryY=0.063;entryDx=0;entryDy=0;entryPerimeter=0;" parent="1" edge="1">
          <mxGeometry x="-0.0905" y="3" width="50" height="50" relative="1" as="geometry">
            <mxPoint x="679" y="170" as="sourcePoint" />
            <mxPoint x="660" y="125" as="targetPoint" />
            <Array as="points">
              <mxPoint x="744" y="170" />
              <mxPoint x="714" y="70" />
            </Array>
            <mxPoint as="offset" />
          </mxGeometry>
        </mxCell>
        <mxCell id="aWajNl2YM8G67ASw5BNE-39" value="" style="curved=1;endArrow=classic;html=1;rounded=0;" parent="1" edge="1">
          <mxGeometry width="50" height="50" relative="1" as="geometry">
            <mxPoint x="411" y="406" as="sourcePoint" />
            <mxPoint x="411" y="356" as="targetPoint" />
            <Array as="points">
              <mxPoint x="401" y="406" />
              <mxPoint x="411" y="406" />
              <mxPoint x="380" y="395" />
              <mxPoint x="351" y="386" />
              <mxPoint x="361" y="356" />
            </Array>
          </mxGeometry>
        </mxCell>
        <mxCell id="aWajNl2YM8G67ASw5BNE-40" value="3. x3" style="edgeLabel;html=1;align=center;verticalAlign=middle;resizable=0;points=[];" parent="aWajNl2YM8G67ASw5BNE-39" vertex="1" connectable="0">
          <mxGeometry x="-0.1781" y="-1" relative="1" as="geometry">
            <mxPoint as="offset" />
          </mxGeometry>
        </mxCell>
        <mxCell id="aWajNl2YM8G67ASw5BNE-41" value="" style="endArrow=classic;html=1;rounded=0;exitX=0.5;exitY=0;exitDx=0;exitDy=0;entryX=0;entryY=0.5;entryDx=0;entryDy=0;" parent="1" source="aWajNl2YM8G67ASw5BNE-6" target="aWajNl2YM8G67ASw5BNE-4" edge="1">
          <mxGeometry relative="1" as="geometry">
            <mxPoint x="310" y="490" as="sourcePoint" />
            <mxPoint x="410" y="490" as="targetPoint" />
          </mxGeometry>
        </mxCell>
        <mxCell id="aWajNl2YM8G67ASw5BNE-42" value="4." style="edgeLabel;resizable=0;html=1;align=center;verticalAlign=middle;" parent="aWajNl2YM8G67ASw5BNE-41" connectable="0" vertex="1">
          <mxGeometry relative="1" as="geometry" />
        </mxCell>
        <mxCell id="aWajNl2YM8G67ASw5BNE-48" value="" style="endArrow=classic;html=1;rounded=0;exitX=1;exitY=0.5;exitDx=0;exitDy=0;entryX=0.25;entryY=1;entryDx=0;entryDy=0;" parent="1" source="aWajNl2YM8G67ASw5BNE-6" target="aWajNl2YM8G67ASw5BNE-4" edge="1">
          <mxGeometry relative="1" as="geometry">
            <mxPoint x="310" y="610" as="sourcePoint" />
            <mxPoint x="410" y="610" as="targetPoint" />
            <Array as="points">
              <mxPoint x="500" y="590" />
              <mxPoint x="500" y="520" />
              <mxPoint x="500" y="460" />
            </Array>
          </mxGeometry>
        </mxCell>
        <mxCell id="aWajNl2YM8G67ASw5BNE-49" value="6." style="edgeLabel;resizable=0;html=1;align=center;verticalAlign=middle;" parent="aWajNl2YM8G67ASw5BNE-48" connectable="0" vertex="1">
          <mxGeometry relative="1" as="geometry" />
        </mxCell>
        <mxCell id="aWajNl2YM8G67ASw5BNE-50" value="" style="endArrow=classic;html=1;rounded=0;entryX=1;entryY=1;entryDx=0;entryDy=0;exitX=1;exitY=0.75;exitDx=0;exitDy=0;" parent="1" source="aWajNl2YM8G67ASw5BNE-4" target="aWajNl2YM8G67ASw5BNE-2" edge="1">
          <mxGeometry relative="1" as="geometry">
            <mxPoint x="440" y="340" as="sourcePoint" />
            <mxPoint x="540" y="340" as="targetPoint" />
          </mxGeometry>
        </mxCell>
        <mxCell id="aWajNl2YM8G67ASw5BNE-51" value="7." style="edgeLabel;resizable=0;html=1;align=center;verticalAlign=middle;" parent="aWajNl2YM8G67ASw5BNE-50" connectable="0" vertex="1">
          <mxGeometry relative="1" as="geometry" />
        </mxCell>
        <mxCell id="aWajNl2YM8G67ASw5BNE-52" value="" style="endArrow=classic;html=1;rounded=0;entryX=1;entryY=0.25;entryDx=0;entryDy=0;" parent="1" target="aWajNl2YM8G67ASw5BNE-4" edge="1">
          <mxGeometry relative="1" as="geometry">
            <mxPoint x="410" y="190" as="sourcePoint" />
            <mxPoint x="510" y="190" as="targetPoint" />
          </mxGeometry>
        </mxCell>
        <mxCell id="aWajNl2YM8G67ASw5BNE-53" value="&lt;div&gt;8.&lt;/div&gt;" style="edgeLabel;resizable=0;html=1;align=center;verticalAlign=middle;" parent="aWajNl2YM8G67ASw5BNE-52" connectable="0" vertex="1">
          <mxGeometry relative="1" as="geometry" />
        </mxCell>
        <object label="9." id="aWajNl2YM8G67ASw5BNE-54">
          <mxCell style="endArrow=classic;html=1;rounded=0;entryX=0;entryY=0.5;entryDx=0;entryDy=0;exitX=0.25;exitY=0;exitDx=0;exitDy=0;fontFamily=Verdana;" parent="1" source="aWajNl2YM8G67ASw5BNE-4" target="aWajNl2YM8G67ASw5BNE-6" edge="1">
            <mxGeometry relative="1" as="geometry">
              <mxPoint x="395" y="430" as="sourcePoint" />
              <mxPoint x="410" y="650" as="targetPoint" />
              <Array as="points">
                <mxPoint x="380" y="460" />
                <mxPoint x="380" y="556" />
                <mxPoint x="380" y="590" />
              </Array>
            </mxGeometry>
          </mxCell>
        </object>
        <mxCell id="Den59G6gHVhHY7wPMUAB-1" value="&lt;div&gt;DFService&lt;/div&gt;" style="whiteSpace=wrap;html=1;aspect=fixed;strokeWidth=5;strokeColor=#FFFF33;" parent="1" vertex="1">
          <mxGeometry x="700" y="340" width="100" height="100" as="geometry" />
        </mxCell>
        <mxCell id="LDsDMLM0zIk8IPWIpXK6-3" value="" style="endArrow=classic;html=1;rounded=0;entryX=0;entryY=0.5;entryDx=0;entryDy=0;exitX=0.5;exitY=1;exitDx=0;exitDy=0;" edge="1" parent="1" source="aWajNl2YM8G67ASw5BNE-4" target="Den59G6gHVhHY7wPMUAB-1">
          <mxGeometry relative="1" as="geometry">
            <mxPoint x="480" y="370" as="sourcePoint" />
            <mxPoint x="570" y="399.5" as="targetPoint" />
          </mxGeometry>
        </mxCell>
        <mxCell id="LDsDMLM0zIk8IPWIpXK6-4" value="0. a)" style="edgeLabel;resizable=0;html=1;align=center;verticalAlign=middle;" connectable="0" vertex="1" parent="LDsDMLM0zIk8IPWIpXK6-3">
          <mxGeometry relative="1" as="geometry" />
        </mxCell>
        <mxCell id="LDsDMLM0zIk8IPWIpXK6-10" value="" style="edgeStyle=segmentEdgeStyle;endArrow=classic;html=1;curved=0;rounded=0;endSize=8;startSize=8;entryX=0.5;entryY=1;entryDx=0;entryDy=0;exitX=1;exitY=0.5;exitDx=0;exitDy=0;" edge="1" parent="1" source="aWajNl2YM8G67ASw5BNE-7" target="Den59G6gHVhHY7wPMUAB-1">
          <mxGeometry width="50" height="50" relative="1" as="geometry">
            <mxPoint x="390" y="440" as="sourcePoint" />
            <mxPoint x="440" y="390" as="targetPoint" />
          </mxGeometry>
        </mxCell>
        <mxCell id="LDsDMLM0zIk8IPWIpXK6-11" value="&lt;font style=&quot;font-size: 12px;&quot;&gt;&lt;font style=&quot;font-size: 12px;&quot;&gt;0. b)&lt;/font&gt;&lt;/font&gt;" style="text;strokeColor=none;fillColor=none;html=1;fontSize=14;fontStyle=0;verticalAlign=middle;align=center;" vertex="1" parent="1">
          <mxGeometry x="750" y="510" width="100" height="40" as="geometry" />
        </mxCell>
        <mxCell id="LDsDMLM0zIk8IPWIpXK6-12" value="" style="edgeStyle=segmentEdgeStyle;endArrow=classic;html=1;curved=0;rounded=0;endSize=8;startSize=8;entryX=0.75;entryY=1;entryDx=0;entryDy=0;exitX=0.811;exitY=1;exitDx=0;exitDy=0;exitPerimeter=0;" edge="1" parent="1" source="aWajNl2YM8G67ASw5BNE-6" target="Den59G6gHVhHY7wPMUAB-1">
          <mxGeometry width="50" height="50" relative="1" as="geometry">
            <mxPoint x="695" y="650" as="sourcePoint" />
            <mxPoint x="760" y="450" as="targetPoint" />
          </mxGeometry>
        </mxCell>
        <mxCell id="LDsDMLM0zIk8IPWIpXK6-13" value="" style="edgeStyle=segmentEdgeStyle;endArrow=classic;html=1;curved=0;rounded=0;endSize=8;startSize=8;entryX=0.25;entryY=1;entryDx=0;entryDy=0;exitX=0.625;exitY=1;exitDx=0;exitDy=0;" edge="1" parent="1" source="aWajNl2YM8G67ASw5BNE-5" target="Den59G6gHVhHY7wPMUAB-1">
          <mxGeometry width="50" height="50" relative="1" as="geometry">
            <mxPoint x="270" y="690" as="sourcePoint" />
            <mxPoint x="810" y="450" as="targetPoint" />
            <Array as="points">
              <mxPoint x="251" y="720" />
              <mxPoint x="725" y="720" />
            </Array>
          </mxGeometry>
        </mxCell>
        <mxCell id="LDsDMLM0zIk8IPWIpXK6-15" value="" style="edgeStyle=elbowEdgeStyle;elbow=vertical;endArrow=classic;html=1;curved=0;rounded=0;endSize=8;startSize=8;entryX=1;entryY=0;entryDx=0;entryDy=0;exitX=0.963;exitY=0.75;exitDx=0;exitDy=0;exitPerimeter=0;" edge="1" parent="1" source="aWajNl2YM8G67ASw5BNE-3" target="Den59G6gHVhHY7wPMUAB-1">
          <mxGeometry width="50" height="50" relative="1" as="geometry">
            <mxPoint x="390" y="320" as="sourcePoint" />
            <mxPoint x="440" y="270" as="targetPoint" />
            <Array as="points">
              <mxPoint x="740" y="180" />
            </Array>
          </mxGeometry>
        </mxCell>
        <mxCell id="LDsDMLM0zIk8IPWIpXK6-16" value="" style="edgeStyle=elbowEdgeStyle;elbow=vertical;endArrow=classic;html=1;curved=0;rounded=0;endSize=8;startSize=8;entryX=0.75;entryY=0;entryDx=0;entryDy=0;exitX=0.5;exitY=0;exitDx=0;exitDy=0;" edge="1" parent="1" source="aWajNl2YM8G67ASw5BNE-2" target="Den59G6gHVhHY7wPMUAB-1">
          <mxGeometry width="50" height="50" relative="1" as="geometry">
            <mxPoint x="440" y="-232" as="sourcePoint" />
            <mxPoint x="440" y="270" as="targetPoint" />
            <Array as="points">
              <mxPoint x="610" y="70" />
            </Array>
          </mxGeometry>
        </mxCell>
        <mxCell id="LDsDMLM0zIk8IPWIpXK6-17" value="" style="edgeStyle=elbowEdgeStyle;elbow=vertical;endArrow=classic;html=1;curved=0;rounded=0;endSize=8;startSize=8;entryX=0.5;entryY=0;entryDx=0;entryDy=0;exitX=0.5;exitY=0;exitDx=0;exitDy=0;" edge="1" parent="1" source="aWajNl2YM8G67ASw5BNE-1" target="Den59G6gHVhHY7wPMUAB-1">
          <mxGeometry width="50" height="50" relative="1" as="geometry">
            <mxPoint x="450" y="130" as="sourcePoint" />
            <mxPoint x="785" y="350" as="targetPoint" />
            <Array as="points">
              <mxPoint x="510" y="60" />
            </Array>
          </mxGeometry>
        </mxCell>
        <mxCell id="LDsDMLM0zIk8IPWIpXK6-18" value="&lt;font style=&quot;font-size: 12px;&quot;&gt;&lt;font style=&quot;font-size: 12px;&quot;&gt;0. b)&lt;/font&gt;&lt;/font&gt;" style="text;strokeColor=none;fillColor=none;html=1;fontSize=14;fontStyle=0;verticalAlign=middle;align=center;" vertex="1" parent="1">
          <mxGeometry x="670" y="270" width="100" height="40" as="geometry" />
        </mxCell>
      </root>
    </mxGraphModel>
  </diagram>
</mxfile>
